<svg width="24" height="24" viewBox="0 0 14 22" fill="none" xmlns="http://www.w3.org/2000/svg">
<path d="M12.2732 10.8271C12.415 10.3454 12.4999 9.71705 12.1204 9.12315C11.7409 8.52923 11.1349 8.34223 10.6382 8.26856C10.1751 8.19987 9.5838 8.19995 8.9398 8.20004L8.8701 8.20005H8V4.27018V4.21709C8.0001 3.81795 8.0001 3.43836 7.9697 3.15585C7.9544 3.01312 7.9231 2.79935 7.8302 2.59143C7.7272 2.36103 7.4873 2.01754 7.0189 1.91437C6.5505 1.81121 6.1884 2.02211 5.9982 2.18793C5.8265 2.33757 5.7083 2.51842 5.6344 2.64149C5.4882 2.88509 5.3287 3.22958 5.1611 3.5918L5.1388 3.63999L2.40746 9.53965L2.37818 9.60295C2.10755 10.1872 1.85906 10.7238 1.72683 11.1729C1.58501 11.6546 1.50012 12.283 1.87963 12.8769C2.25914 13.4708 2.8651 13.6578 3.36179 13.7315C3.82486 13.8002 4.41608 13.8001 5.06 13.8H5.0602H5.1299H6V17.7299V17.783C5.9999 18.1821 5.9999 18.5617 6.0303 18.8442C6.0456 18.9869 6.0769 19.2007 6.1698 19.4086C6.2728 19.639 6.5127 19.9825 6.9811 20.0857C7.4495 20.1888 7.8116 19.9779 8.0018 19.8121C8.1735 19.6625 8.2917 19.4816 8.3656 19.3586C8.5118 19.115 8.6713 18.7705 8.8389 18.4083L8.8612 18.3601L11.5925 12.4604L11.6218 12.3971C11.8925 11.8128 12.1409 11.2762 12.2732 10.8271Z" stroke="#33363F" stroke-width="2"/>
</svg>
